<?xml version="1.0" encoding="UTF-8" standalone="no"?>
<!-- Created with Inkscape (http://www.inkscape.org/) -->

<svg
   width="1080"
   height="1080"
   viewBox="0 0 285.75 285.75"
   version="1.1"
   id="svg5"
   inkscape:version="1.1 (ce6663b3b7, 2021-05-25)"
   sodipodi:docname="mouth1.svg"
   xmlns:inkscape="http://www.inkscape.org/namespaces/inkscape"
   xmlns:sodipodi="http://sodipodi.sourceforge.net/DTD/sodipodi-0.dtd"
   xmlns="http://www.w3.org/2000/svg"
   xmlns:svg="http://www.w3.org/2000/svg">
  <sodipodi:namedview
     id="namedview7"
     pagecolor="#505050"
     bordercolor="#ffffff"
     borderopacity="1"
     inkscape:pageshadow="0"
     inkscape:pageopacity="0"
     inkscape:pagecheckerboard="1"
     inkscape:document-units="px"
     showgrid="false"
     inkscape:zoom="0.6499793"
     inkscape:cx="438.4755"
     inkscape:cy="554.63305"
     inkscape:window-width="1528"
     inkscape:window-height="836"
     inkscape:window-x="72"
     inkscape:window-y="27"
     inkscape:window-maximized="1"
     inkscape:current-layer="layer9" />
  <defs
     id="defs2" />
  <g
     inkscape:groupmode="layer"
     id="layer10"
     inkscape:label="background"
     style="display:none">
    <rect
       style="display:inline;fill:#f4f4f4;stroke:#2e2633;stroke-width:0;stroke-linecap:round;stroke-linejoin:bevel;stroke-opacity:0.553351"
       id="rect1058"
       width="286.12073"
       height="285.5137"
       x="-0.47686681"
       y="-0.11094625" />
  </g>
  <g
     inkscape:groupmode="layer"
     id="layer8"
     inkscape:label="face-shadow"
     style="display:none">
    <g
       id="g5965"
       transform="matrix(1.0386788,0,0,0.94807566,-5.2523734,2.2909626)"
       style="display:inline;fill:#b8cbd1;fill-opacity:1;stroke:#2f2633;stroke-width:0;stroke-miterlimit:4;stroke-dasharray:none;stroke-opacity:0">
      <path
         id="path5963"
         style="fill:#b8cbd1;fill-opacity:1;stroke:#2f2633;stroke-width:0;stroke-miterlimit:4;stroke-dasharray:none;stroke-opacity:0"
         d="m 85.629795,50.821302 c -5.028882,-0.06653 -9.618701,1.350579 -13.064399,4.903421 -10.745304,11.079427 -13.879179,34.063532 -3.510011,45.432387 -0.740524,0.74607 -1.465552,1.50685 -2.18312,2.27457 -0.285324,0.30528 -0.56913,0.61143 -0.850762,0.92008 -0.845207,0.92622 -1.672773,1.86809 -2.484121,2.824 -0.261603,0.30824 -0.522593,0.61697 -0.780609,0.92824 -0.806924,0.97336 -1.594487,1.96231 -2.365712,2.96462 -0.239635,0.31149 -0.478812,0.62274 -0.714937,0.93697 -0.768431,1.0224 -1.516667,2.0605 -2.247303,3.11124 -0.214073,0.30793 -0.428044,0.61521 -0.638816,0.92552 -0.733199,1.0792 -1.443755,2.17453 -2.136355,3.28185 -0.185543,0.29673 -0.37265,0.59193 -0.555234,0.89064 -0.696515,1.13915 -1.368222,2.29403 -2.020928,3.46117 -0.158275,0.28311 -0.31848,0.56504 -0.474138,0.84976 -0.654105,1.19606 -1.28143,2.40809 -1.888589,3.63178 -0.131922,0.26597 -0.266853,0.53018 -0.396524,0.79743 -0.612507,1.2619 -1.195723,2.53959 -1.757244,3.82909 -0.104686,0.24051 -0.212043,0.47969 -0.314931,0.72112 -0.564065,1.32313 -1.0978,2.66186 -1.606991,4.01224 -0.08314,0.22059 -0.169093,0.43932 -0.250752,0.66062 -0.510363,1.38251 -0.988286,2.78013 -1.439824,4.18938 -0.0629,0.19639 -0.128815,0.39124 -0.190551,0.58813 -0.455716,1.45267 -0.876926,2.92003 -1.268676,4.39923 -0.04141,0.15642 -0.08569,0.3115 -0.126372,0.46821 -0.393962,1.51682 -0.75104,3.0483 -1.076138,4.5911 -0.02742,0.13021 -0.05765,0.25933 -0.08458,0.38972 -0.324076,1.56849 -0.610024,3.15032 -0.861209,4.74371 -0.01763,0.11176 -0.03798,0.22226 -0.05522,0.33413 -0.251345,1.6297 -0.461592,3.27257 -0.634837,4.92631 -0.0077,0.0741 -0.01778,0.14768 -0.02537,0.22184 -0.174292,1.69956 -0.307226,3.41115 -0.397023,5.13399 -0.0015,0.029 -0.0035,0.0576 -0.005,0.0867 -0.09014,1.75802 -0.136319,3.52776 -0.136319,5.30786 0,1.78789 0.04593,3.53153 0.136819,5.23155 0.09088,1.70001 0.226412,3.35625 0.405977,4.97046 0.179567,1.61421 0.402622,3.18599 0.668668,4.71646 0.266043,1.53047 0.575566,3.01967 0.925884,4.46846 0.350319,1.44879 0.742257,2.85727 1.174647,4.22644 0.43239,1.36918 0.905178,2.69935 1.417436,3.99098 0.510837,1.28804 1.060712,2.53763 1.648785,3.7506 0.0015,0.003 0.0028,0.007 0.0045,0.0104 0.0018,0.004 0.0041,0.008 0.006,0.0114 0.588306,1.21207 1.214352,2.38746 1.877643,3.52658 0.665387,1.14272 1.367858,2.24918 2.106503,3.32054 0.738645,1.07137 1.513722,2.10754 2.323421,3.10961 0.809702,1.00207 1.654325,1.96981 2.532879,2.90466 0.878556,0.93484 1.790665,1.83657 2.735868,2.70625 0.940453,0.86532 1.914199,1.69901 2.918457,2.50186 0.005,0.004 0.0095,0.009 0.01442,0.0125 0,0 5.09e-4,0 5.09e-4,0 0.0048,0.004 0.0097,0.008 0.01442,0.0114 1.000383,0.79866 2.032134,1.56631 3.093584,2.30509 0.005,0.003 0.0095,0.007 0.01442,0.0109 0,0 5.09e-4,0 5.09e-4,0 0.0049,0.003 0.01006,0.006 0.01493,0.01 1.062504,0.73856 2.15471,1.44784 3.276175,2.12849 0.0049,0.003 0.0095,0.006 0.01442,0.009 0,0 5.1e-4,0 5.1e-4,0 0.0049,0.003 0.01004,0.006 0.01493,0.009 1.127255,0.68334 2.28363,1.33857 3.468217,1.96551 1.184933,0.62713 2.398245,1.22599 3.638369,1.79872 0.0049,0.003 0.0095,0.005 0.01442,0.007 0,0 5.1e-4,0 5.1e-4,0 0.0048,0.002 0.0096,0.005 0.01442,0.007 1.235971,0.57019 2.499047,1.11371 3.787625,1.63193 0.0049,0.002 0.0095,0.004 0.01442,0.006 0,0 5.1e-4,0 5.1e-4,0 0.0048,0.002 0.0097,0.004 0.01442,0.005 1.289419,0.51801 2.604458,1.01125 3.944347,1.47931 0.0049,0.002 0.0095,0.003 0.01442,0.005 0,0 5.1e-4,0 5.1e-4,0 0.0047,0.002 0.01019,0.003 0.01493,0.005 1.340772,0.46788 2.705981,0.91114 4.095094,1.33105 0.0047,10e-4 0.0092,0.003 0.01393,0.005 0,0 5.1e-4,0 5.1e-4,0 0.0044,0.001 0.009,0.003 0.01342,0.004 1.390251,0.41984 2.804396,0.81656 4.240868,1.19042 0.0046,10e-4 0.0089,0.002 0.01342,0.003 0,0 5.1e-4,0 5.1e-4,0 0.0042,0.001 0.0087,0.002 0.01294,0.003 1.441778,0.37489 2.905489,0.72734 4.391615,1.05797 1.486305,0.33068 2.994978,0.63925 4.523462,0.92771 0.0042,8.4e-4 0.0082,0.002 0.01243,0.003 0,0 5.1e-4,0 5.1e-4,0 1.532779,0.28913 3.086309,0.5574 4.659289,0.80615 0,0 5.1e-4,0 5.1e-4,0 0.002,2.7e-4 0.003,2.7e-4 0.005,5.6e-4 3.14303,0.49694 6.36406,0.91592 9.6544,1.26401 0.002,1.7e-4 0.003,2.8e-4 0.004,5.6e-4 0,0 5.1e-4,0 5.1e-4,0 0.001,1.4e-4 0.003,2.8e-4 0.004,5.6e-4 3.29127,0.34804 6.65176,0.62542 10.07281,0.84103 10e-4,8e-5 0.003,5.6e-4 0.004,5.6e-4 0,0 5.1e-4,0 5.1e-4,0 7.7e-4,5e-5 0.002,-5e-5 0.003,0 3.42226,0.21561 6.90496,0.36917 10.43948,0.46876 7.6e-4,2e-5 0.002,-3e-5 0.003,0 2.5e-4,1e-5 7.6e-4,-1e-5 0.001,0 3.53562,0.0996 7.12308,0.14552 10.75341,0.14553 h 0.001 c 3.63087,0 7.21879,-0.0459 10.75491,-0.14553 0,0 5.1e-4,0 5.1e-4,0 3.53612,-0.0996 7.02071,-0.25303 10.44446,-0.46876 0,0 4.9e-4,0 4.9e-4,0 3.42375,-0.21573 6.78653,-0.49376 10.08028,-0.84213 0,0 5.1e-4,0 5.1e-4,0 3.29374,-0.34836 6.51822,-0.76758 9.66434,-1.2651 1.57332,-0.2488 3.12668,-0.51695 4.65978,-0.80615 1.53293,-0.28916 3.04538,-0.59881 4.5359,-0.93043 1.49035,-0.33157 2.95931,-0.68516 4.40505,-1.06124 0,0 5.1e-4,0 5.1e-4,0 1.44573,-0.37609 2.86831,-0.77485 4.26723,-1.19751 0,0 5e-4,0 5e-4,0 1.39892,-0.42267 2.77405,-0.86957 4.12395,-1.34087 0,0 5.1e-4,0 5.1e-4,0 1.3499,-0.4713 2.67452,-0.96766 3.97321,-1.48967 0,0 5.1e-4,0 5.1e-4,0 1.29867,-0.522 2.57122,-1.07023 3.81648,-1.64501 0,0 5.1e-4,0 5.1e-4,0 1.24539,-0.57484 2.46303,-1.17611 3.65279,-1.8058 1.18963,-0.62961 2.35134,-1.28773 3.48315,-1.97423 0,0 5.1e-4,0 5.1e-4,0 1.1318,-0.68651 2.23425,-1.4021 3.30602,-2.14756 0,0 5.1e-4,0 5.1e-4,0 1.07177,-0.74548 2.11241,-1.52094 3.12195,-2.32744 0,0 5.1e-4,0 5.1e-4,0 1.00964,-0.80658 1.98768,-1.64416 2.93288,-2.51385 0.9452,-0.86968 1.85782,-1.77195 2.73637,-2.7068 0.87855,-0.93484 1.72268,-1.90258 2.53238,-2.90465 0.80969,-1.00208 1.58478,-2.03824 2.32342,-3.10961 0.73864,-1.07136 1.44112,-2.17782 2.1065,-3.32054 0.66328,-1.13912 1.28935,-2.31451 1.87765,-3.52658 0.003,-0.007 0.007,-0.0142 0.0104,-0.0213 0.58815,-1.2131 1.13839,-2.46296 1.64928,-3.75115 0.51226,-1.29163 0.98505,-2.62125 1.41744,-3.99043 0.43239,-1.36917 0.82433,-2.7782 1.17465,-4.22699 0.35031,-1.44879 0.65934,-2.93799 0.92539,-4.46846 0.26604,-1.53046 0.4891,-3.10225 0.66866,-4.71646 0.17957,-1.61421 0.3151,-3.27044 0.40598,-4.97046 0.0909,-1.70002 0.13732,-3.44366 0.13732,-5.23155 0,-1.73434 -0.0453,-3.45815 -0.13085,-5.17159 -0.002,-0.0361 -0.002,-0.0724 -0.004,-0.10847 -0.0864,-1.69531 -0.21685,-3.37881 -0.38508,-5.05168 -0.005,-0.0472 -0.008,-0.095 -0.0129,-0.14226 -0.16949,-1.66225 -0.38052,-3.31271 -0.62886,-4.95084 -0.009,-0.0564 -0.0157,-0.11318 -0.0244,-0.16951 -0.24843,-1.62036 -0.53798,-3.22682 -0.86171,-4.82166 -0.0154,-0.0759 -0.0287,-0.1525 -0.0443,-0.22838 -0.32465,-1.58085 -0.68874,-3.1479 -1.08559,-4.70175 -0.0213,-0.0833 -0.0407,-0.16748 -0.0622,-0.25073 -0.40243,-1.55918 -0.84261,-3.10302 -1.31594,-4.63306 -0.0212,-0.0684 -0.0409,-0.13718 -0.0622,-0.2055 -0.47841,-1.53498 -0.99336,-3.0536 -1.54132,-4.5573 -0.0233,-0.0639 -0.0457,-0.12855 -0.0692,-0.1924 -0.55094,-1.5025 -1.1377,-2.98772 -1.75625,-4.45701 -0.0268,-0.0636 -0.0522,-0.12784 -0.0791,-0.19132 -0.62386,-1.47354 -1.28261,-2.92892 -1.97267,-4.36708 -0.0251,-0.0522 -0.049,-0.10479 -0.0741,-0.15698 -0.69901,-1.4505 -1.43257,-2.88209 -2.19705,-4.29457 -0.0188,-0.0347 -0.0369,-0.0694 -0.0557,-0.10411 -0.77148,-1.4215 -1.57564,-2.82261 -2.41149,-4.20355 -0.0167,-0.0276 -0.0335,-0.0553 -0.0502,-0.0828 -0.84302,-1.38985 -1.71817,-2.7582 -2.62442,-4.1049 -0.009,-0.0139 -0.019,-0.0281 -0.0284,-0.042 -0.91524,-1.35863 -1.86179,-2.6947 -2.83935,-4.00733 -5e-4,-8.4e-4 -10e-4,-10e-4 -0.002,-0.002 -5.1e-4,-8.4e-4 -0.002,-0.001 -0.002,-0.002 -0.98194,-1.31836 -1.99465,-2.61262 -3.03736,-3.8825 -1.0433,-1.2706 -2.11643,-2.51645 -3.21846,-3.73644 -1.10201,-1.21997 -2.23297,-2.41381 -3.3916,-3.5811 10.36917,-11.368856 7.23529,-34.352961 -3.51001,-45.432389 -3.4457,-3.552842 -8.03551,-4.969946 -13.0644,-4.903421 -11.06355,0.146369 -24.25394,7.475837 -32.07019,15.056376 -2.01168,1.951004 -3.38394,4.124123 -4.22395,6.441052 -0.002,-5.58e-4 -0.004,-5.58e-4 -0.006,-0.0011 -1.78913,-0.381259 -3.59525,-0.718557 -5.41701,-1.008919 -0.0185,-0.0029 -0.0368,-0.0058 -0.0552,-0.0087 -1.79101,-0.284494 -3.59643,-0.525243 -5.4165,-0.719487 -0.0583,-0.0063 -0.11627,-0.01345 -0.17464,-0.01962 -1.79665,-0.188763 -3.6069,-0.333161 -5.42944,-0.431694 -0.0696,-0.0038 -0.13834,-0.0094 -0.20796,-0.01309 -1.87083,-0.09751 -3.75385,-0.149893 -5.64935,-0.149893 h -5.1e-4 -5.1e-4 c -1.71377,1.4e-5 -3.41655,0.04661 -5.11004,0.127001 -0.14324,0.0068 -0.28726,0.01013 -0.43035,0.01744 -1.56782,0.08071 -3.12438,0.202131 -4.67322,0.349931 -0.28013,0.0266 -0.56132,0.04919 -0.84081,0.07795 -1.44111,0.148983 -2.87137,0.332349 -4.2946,0.537979 -0.38292,0.05515 -0.76621,0.108138 -1.14778,0.167336 -1.34333,0.208979 -2.67751,0.445977 -4.00355,0.704226 -0.43581,0.0848 -0.87064,0.170459 -1.3045,0.260541 -0.18314,0.03804 -0.36796,0.07114 -0.55075,0.110106 -0.84001,-2.316932 -2.21277,-4.490048 -4.22445,-6.441052 C 109.88389,58.29713 96.693986,50.967665 85.630442,50.821294 Z" />
    </g>
  </g>
  <g
     inkscape:groupmode="layer"
     id="layer5"
     inkscape:label="face"
     style="display:none">
    <path
       id="path13746"
       style="display:inline;fill:#e9f1f4;stroke:#2e2633;stroke-width:0;stroke-linecap:round;stroke-linejoin:bevel;stroke-opacity:0.553351"
       d="m 244.44902,181.47525 c -5.97835,22.14535 -40.63325,35.86401 -100.23626,35.86401 -59.603013,0 -97.542136,-13.04642 -103.827994,-33.00541 -9.038099,-28.69796 3.544092,-62.80967 30.333179,-85.30456 19.063586,-16.007759 39.780465,-24.76167 71.728785,-24.649436 40.33191,0.141686 55.56464,10.950724 74.13291,26.497866 26.71207,22.36592 35.85456,51.01834 27.86938,80.59753 z"
       sodipodi:nodetypes="sssssss"
       transform="matrix(1,0,0.01571168,0.99987656,0,0)" />
  </g>
  <g
     inkscape:groupmode="layer"
     id="layer2"
     inkscape:label="Ear-color"
     style="display:none">
    <path
       id="path16362"
       style="display:inline;fill:#50565b;stroke:#2e2633;stroke-width:0;stroke-linecap:round;stroke-linejoin:bevel;stroke-opacity:0.553351"
       inkscape:transform-center-x="-4.5202169"
       inkscape:transform-center-y="2.7317952"
       d="m 228.67558,74.468399 c 0,15.593573 -5.06794,25.102441 -21.02661,25.102441 -6.74489,0 -15.06444,-1.520971 -20.47825,-4.877214 -7.20389,-4.465989 -15.53036,-9.451112 -15.53036,-18.454094 0,-15.593572 12.59656,-27.372557 28.63484,-29.33103 15.841,-1.934383 28.40038,11.966325 28.40038,27.559897 z"
       sodipodi:nodetypes="ssssss" />
    <path
       id="path17933"
       style="display:inline;fill:#50565b;stroke:#2e2633;stroke-width:0;stroke-linecap:round;stroke-linejoin:bevel;stroke-opacity:0.553351"
       inkscape:transform-center-x="4.5202169"
       inkscape:transform-center-y="2.7317952"
       d="m 60.630124,74.119939 c 0,15.593573 5.06794,25.102443 21.02661,25.102443 6.74489,0 15.06444,-1.52097 20.478246,-4.877216 7.20389,-4.465989 15.53036,-9.451112 15.53036,-18.454094 0,-15.593572 -12.59656,-27.372557 -28.634836,-29.33103 -15.841,-1.934383 -28.40038,11.966325 -28.40038,27.559897 z"
       sodipodi:nodetypes="ssssss" />
  </g>
  <g
     inkscape:groupmode="layer"
     id="layer6"
     inkscape:label="Eye-shadow"
     style="display:none">
    <ellipse
       style="display:inline;fill:#50565b;fill-opacity:1;stroke:#2e2633;stroke-width:0;stroke-linecap:round;stroke-linejoin:bevel;stroke-miterlimit:4;stroke-dasharray:none;stroke-opacity:0.553351"
       id="path18117"
       cx="78.160355"
       cy="229.36308"
       rx="35.313034"
       ry="47.516399"
       transform="matrix(0.84339499,-0.53729403,0.54166722,0.84059302,0,0)" />
    <ellipse
       style="display:inline;fill:#50565b;fill-opacity:1;stroke:#2e2633;stroke-width:0;stroke-linecap:round;stroke-linejoin:bevel;stroke-miterlimit:4;stroke-dasharray:none;stroke-opacity:0.553351"
       id="ellipse18281"
       cx="-163.17892"
       cy="75.102852"
       rx="35.313034"
       ry="47.516399"
       transform="matrix(-0.84339499,-0.53729403,-0.54166722,0.840593,0,0)" />
  </g>
  <g
     inkscape:groupmode="layer"
     id="layer7"
     inkscape:label="eyes"
     style="display:none">
    <ellipse
       style="display:inline;fill:#2f2633;fill-opacity:1;stroke:#2f2633;stroke-width:0.912751;stroke-miterlimit:4;stroke-dasharray:none"
       id="ellipse3785"
       cx="185.85931"
       cy="143.88072"
       rx="30.137184"
       ry="30.044037"
       inkscape:transform-center-x="-19.419861"
       inkscape:transform-center-y="1.677782" />
    <ellipse
       style="display:inline;fill:#2f2633;fill-opacity:1;stroke:#2f2633;stroke-width:0.912751;stroke-miterlimit:4;stroke-dasharray:none"
       id="ellipse4080"
       cx="101.72255"
       cy="143.88072"
       rx="30.137184"
       ry="30.044037"
       inkscape:transform-center-x="-19.419861"
       inkscape:transform-center-y="1.677782" />
  </g>
  <g
     inkscape:groupmode="layer"
     id="layer9"
     inkscape:label="eye-glitter"
     style="display:none">
    <ellipse
       style="display:inline;fill:#ffffff;fill-opacity:1;stroke:#2f2633;stroke-width:0.962305;stroke-miterlimit:4;stroke-dasharray:none"
       id="path4104"
       cx="195.95322"
       cy="131.26869"
       rx="6.9474864"
       ry="7.4368763" />
    <ellipse
       style="display:inline;fill:#ffffff;fill-opacity:1;stroke:#2f2633;stroke-width:0.288867;stroke-miterlimit:4;stroke-dasharray:none"
       id="ellipse4252"
       cx="203.52887"
       cy="139.94153"
       rx="2.1101363"
       ry="2.2063761" />
    <ellipse
       style="display:inline;fill:#ffffff;fill-opacity:1;stroke:#2f2633;stroke-width:0.962305;stroke-miterlimit:4;stroke-dasharray:none"
       id="ellipse4258"
       cx="119.09795"
       cy="132.33481"
       rx="6.9474864"
       ry="7.4368763" />
    <ellipse
       style="display:inline;fill:#ffffff;fill-opacity:1;stroke:#2f2633;stroke-width:0.288867;stroke-miterlimit:4;stroke-dasharray:none"
       id="ellipse4260"
       cx="126.67374"
       cy="141.00764"
       rx="2.1101363"
       ry="2.2063761" />
  </g>
  <g
     inkscape:groupmode="layer"
     id="layer4"
     inkscape:label="mouth"
     style="display:inline">
    <ellipse
       style="display:inline;fill:#f4f4f4;fill-opacity:1;stroke:#2e2633;stroke-width:0;stroke-linecap:round;stroke-linejoin:bevel;stroke-miterlimit:4;stroke-dasharray:none;stroke-opacity:0.553351"
       id="path18709"
       cx="143.99518"
       cy="191.22383"
       rx="31.694391"
       ry="24.077906" />
    <ellipse
       style="display:inline;fill:#2f2633;fill-opacity:1;stroke:#2f2633;stroke-width:0.753757;stroke-miterlimit:4;stroke-dasharray:none"
       id="path4444"
       cx="143.55135"
       cy="180.56931"
       rx="8.7834692"
       ry="4.6906381" />
    <path
       style="display:inline;fill:none;stroke:#2f2633;stroke-width:5.29167;stroke-linecap:round;stroke-linejoin:bevel;stroke-miterlimit:4;stroke-dasharray:none;stroke-opacity:1"
       d="m 143.77345,179.31593 v 21.6532 c 0,0 18.02084,10.81785 22.93816,-0.87217"
       id="path4772"
       sodipodi:nodetypes="ccc" />
    <path
       style="display:inline;fill:none;stroke:#2f2633;stroke-width:5.29167;stroke-linecap:round;stroke-linejoin:bevel;stroke-miterlimit:4;stroke-dasharray:none;stroke-opacity:1"
       d="m 143.77345,179.31593 v 21.6532 c 0,0 -18.02084,10.81785 -22.93816,-0.87217"
       id="path5040"
       sodipodi:nodetypes="ccc" />
  </g>
  <g
     inkscape:groupmode="layer"
     id="layer3"
     inkscape:label="Face-outline"
     style="display:none">
    <g
       id="g2466"
       transform="matrix(1.0386788,0,0,0.94807566,-5.2529026,8.6409631)"
       style="display:inline">
      <path
         id="path79"
         style="fill:#ff0000;fill-opacity:0;stroke:#2f2633;stroke-width:10.8881"
         d="m 95.979717,46.041946 c 7.446183,2.494227 14.328723,6.593523 20.229263,11.758829 2.49113,2.113367 4.64999,4.720969 5.74024,7.837891 14.67368,-3.10638 29.9936,-3.122682 44.66601,-0.0039 0.24792,-0.661676 0.52019,-1.315847 0.85546,-1.938451 1.79935,-3.556448 5.00018,-6.08462 8.06126,-8.509234 6.18748,-4.672769 13.21232,-8.394768 20.78849,-10.194985 5.03302,-1.152151 10.57569,-1.370627 15.33371,0.917482 3.71471,1.73801 6.33823,5.090433 8.45379,8.496345 4.05658,6.779081 6.00348,14.770152 5.74867,22.652328 -0.23713,6.247823 -2.05763,12.704889 -6.35075,17.402687 4.25722,4.291608 8.1478,8.944622 11.60184,13.904942 10.58273,15.12666 16.95805,33.16231 18.15534,51.58751 0.70526,11.07903 -0.0993,22.43957 -3.9099,32.94211 -3.15144,8.84264 -8.70941,16.81209 -15.97579,22.76224 -8.86389,7.3261 -19.73382,11.77335 -30.77854,14.62368 -14.17153,3.6155 -28.83063,4.86309 -43.41425,5.30649 -14.82566,0.36828 -29.70122,0.13139 -44.44658,-1.55411 -12.939702,-1.54748 -25.91727,-4.20366 -37.781405,-9.75895 -8.880197,-4.14826 -17.023677,-10.19078 -22.79364,-18.18661 -6.116645,-8.35768 -9.3795,-18.5138 -10.520634,-28.73589 -1.335661,-12.20659 -0.330226,-24.65604 2.783131,-36.52644 4.566229,-17.45282 13.919472,-33.58013 26.629256,-46.363019 -1.533821,-1.685561 -2.786262,-3.620671 -3.726323,-5.695376 -2.964248,-6.549263 -3.208155,-14.04704 -1.891263,-21.03042 1.347798,-6.918493 4.279684,-13.707654 9.232107,-18.813964 3.117981,-3.20534 7.628815,-4.710334 12.033916,-4.768834 3.837399,-0.08037 7.644604,0.692834 11.276592,1.887649 z"
         sodipodi:nodetypes="cccccccccccccccccccccccccccc" />
    </g>
  </g>
</svg>
